# xmcd
#
# Track frame offsets: 
#        180
#        18753
#        37469
#        50304
#        65431
#        89685
#        104660
#        117395
#        128041
#        140347
#        153940
#        166345
#        179741
#        194236
#        209883
#        224068
#        238771
#
# Disc length: 3406 seconds
#
# Revision: 2
# Processed by: cddbd v1.5.2PL0 Copyright (c) Steve Scherf et al.
# Submitted via: ExactAudioCopyFreeDBPlugin 1.0
#
DISCID=150d4c11
DTITLE=Various Artist - L'âme des poètes
DYEAR=1900
DGENRE=Chanson
TTITLE0=Charles Aznavour - La Bohème
TTITLE1=Barbara - Nantes
TTITLE2=Yves Montant - La bicyclette
TTITLE3=Léo Ferré - Paris canaille
TTITLE4=Serge Reggiani - Les loups sont entrés dans Paris
TTITLE5=Edith Piaf - Padam... Padam
TTITLE6=Henri Salvador - Syracuse
TTITLE7=Jeanne Moreau - J'ai la mémoire qui flanche
TTITLE8=Charles Dumont - Une chanson
TTITLE9=Marlène Dietrich - Lili Marlène
TTITLE10=Charles Trenet - L'âme des poètes
TTITLE11=Maurice Chevalier - Ma pomme
TTITLE12=Juliette Gréco - Si tu t'imagines
TTITLE13=Luis Mariano - L'amour est un bouquet de violettes
TTITLE14=Tino Rossi - Méditerranée
TTITLE15=Josephine Baker - J'ai deux amours
TTITLE16=Gilbert Bécaud - Et maintenant
EXTD=
EXTT0=Charles Aznavour
EXTT1=Barbara
EXTT2=Yves Montand
EXTT3=Léo Ferré
EXTT4=Serge Reggiani
EXTT5=Édith Piaf
EXTT6=Henri Salvador
EXTT7=Jeanne Moreau
EXTT8=Charles Dumont
EXTT9=Marlène Dietrich
EXTT10=Charles Trenet
EXTT11=Maurice Chevalier
EXTT12=Juliette Gréco
EXTT13=Luis Mariano
EXTT14=Tino Rossi
EXTT15=Joséphine Baker
EXTT16=Gilbert Bécaud
PLAYORDER=
